<svg xmlns="http://www.w3.org/2000/svg" viewBox="0 0 80.7 82.4" xml:space="preserve"><radialGradient id="a" cx="-459.088" cy="395.389" r="1" gradientTransform="matrix(-72.5002 22.4994 32.0533 103.2857 -45895.734 -30500.977)" gradientUnits="userSpaceOnUse"><stop offset="0" stop-color="#3e96f7"/><stop offset=".486" stop-color="#9301ff"/><stop offset=".714" stop-color="#cc01fe"/></radialGradient><path d="M9.9 24.3c3 9.5 13.1 14.8 22.5 11.8 9.5-3 32-18.4 29-27.9S31.2-1.2 21.7 1.7C12.2 4.7 7 14.8 9.9 24.3z" fill="url(#a)"/><radialGradient id="b" cx="-458.053" cy="394.9" r="1" gradientTransform="matrix(-54.5002 35.4997 82.29 126.3339 -57421.172 -33584.492)" gradientUnits="userSpaceOnUse"><stop offset=".098" stop-color="#d730a2"/><stop offset=".468" stop-color="#fd291c"/><stop offset=".7" stop-color="#fca13d"/></radialGradient><path d="M4.2 76.3c5.6 5.6 14.6 5.6 20.2 0S40.1 51.6 34.5 46c-5.6-5.6-24.7 4.5-30.3 10.1s-5.6 14.7 0 20.2z" fill="url(#b)"/><linearGradient id="c" gradientUnits="userSpaceOnUse" x1="62.432" y1="52.5" x2="62.432" y2="1" gradientTransform="matrix(1 0 0 -1 0 84)"><stop offset="0" stop-color="#9f58ee"/><stop offset="1" stop-color="#56f77c"/></linearGradient><path d="M57.5 81.8c9.6 2.6 19.5-3.1 22-12.7 2.6-9.6 1.5-36.9-8.1-39.4-9.6-2.6-24.1 20.5-26.7 30.1-2.5 9.6 3.2 19.4 12.8 22z" fill="url(#c)"/></svg>